<?xml version="1.0" encoding="utf-8"?>
<!-- Generator: Adobe Illustrator 24.1.2, SVG Export Plug-In . SVG Version: 6.00 Build 0)  -->
<svg version="1.1" id="Capa_1" xmlns="http://www.w3.org/2000/svg" xmlns:xlink="http://www.w3.org/1999/xlink" x="0px" y="0px"
	 viewBox="0 0 595.28 841.89" style="enable-background:new 0 0 595.28 841.89;" xml:space="preserve">
<style type="text/css">
	.st0{fill:#FDFDFD;stroke:#4A467B;stroke-width:9.2707;stroke-miterlimit:10;}
	.st1{fill:#B7B6B6;}
	.st2{fill:#E2E2E1;}
	.st3{fill:#FDC42F;stroke:#4A467B;stroke-width:8.2534;stroke-miterlimit:10;}
	.st4{fill:none;}
	.st5{fill:#4A467B;}
	.st6{fill:url(#path2_2_);}
	.st7{fill:url(#path2_3_);}
	.st8{fill:#FFFFFF;}
	.st9{fill:#FDC42F;stroke:#4A467B;stroke-width:9.2707;stroke-miterlimit:10;}
	.st10{fill:#FDC42F;stroke:#4A467B;stroke-width:5.7942;stroke-miterlimit:10;}
	.st11{fill:#B28624;}
	.st12{fill:#FDC42F;stroke:#4A467B;stroke-width:5.5139;stroke-miterlimit:10;}
	.st13{fill:#C685A7;}
	.st14{fill:#4C477A;}
	.st15{fill:#EAAA90;}
	.st16{fill:#C08B79;}
	.st17{fill:#FDC42F;stroke:#4A467B;stroke-width:5.6977;stroke-miterlimit:10;}
	.st18{fill:#FDC42F;stroke:#4A467B;stroke-width:4.8659;stroke-miterlimit:10;}
	.st19{fill:#FDC42F;stroke:#4A467B;stroke-width:4.785;stroke-miterlimit:10;}
</style>
<g>
	<g>
		<path class="st0" d="M425.07,430.98c0,0,63.7-37.68,66.84-4.04s-19.29,56.97-42.62,58.32c-23.33,1.35-55.62-0.45-57.42-17.49
			c-1.79-17.05-5.38-44.41,9.42-47.55C416.1,417.07,425.07,430.98,425.07,430.98z"/>
		<path class="st0" d="M392.77,360.55c0,0,93.3-96.89,113.04-92.41s37.23,15.7,33.2,50.24s-13.01,69.53-48,89.27
			s-79.4,39.03-95.55,38.13C379.31,444.88,355.09,387.01,392.77,360.55z"/>
		<path class="st1" d="M458.94,429.29c0,0-24,11.66-33.64,14.13c-9.64,2.47-20.41,7.18-25.01,7.07c-4.6-0.11-5.61,0.11-5.61,0.11
			s1.35,16.71,2.02,18.28c0.67,1.57,5.05,7.74,12.56,9.31s14.92,2.36,18.95,2.69c4.04,0.34,16.82,0,18.62,0
			c1.79,0,2.8,2.13-8.41-3.59s-18.95-8.97-8.41-16.26C440.55,453.74,469.26,434.9,458.94,429.29z"/>
		<path class="st1" d="M385.3,430.68c0,0,2.54,4.04,3.59,5.38c1.05,1.35,3.14,3.89,4.49,4.49s4.04,0.75,4.04,0.75
			s10.32-1.35,16-3.14c5.68-1.79,50.54-19.59,68.78-30.5c18.24-10.92,25.42-18.09,27.51-20.34c2.09-2.24,10.32-15.25,11.07-17.35
			s-1.05,2.84-16.45,12.86c-15.4,10.02-26.77,24.82-61.61,34.24c-34.84,9.42-46.65,15.25-51.29,13.76s-12.41-16.15-10.92-10.62
			C382.01,425.74,383.65,428.73,385.3,430.68z"/>
		<path class="st2" d="M524.66,281.75c0,0,6.28,5.38,7.78,11.21c1.5,5.83,3.74,18.84,1.64,28.41s-2.09,17.05-3.89,23.48
			c-1.79,6.43-8.82,24.37-9.42,25.12c-0.6,0.75-21.23,16.75-22.28,17.64c-1.05,0.9-20.34,15.55-25.57,17.64
			c-5.23,2.09-18.84,10.02-31.85,12.41c-13.01,2.39-39.62,12.56-43.21,12.71c-3.59,0.15-6.13,2.24-8.22-0.45
			c-2.09-2.69-6.73-8.37-7.48-9.12c-0.75-0.75-1.94-2.69-1.94-2.69s19.74,5.23,53.68-5.68c33.94-10.92,49.04-27.66,61.61-42.17
			c12.56-14.5,24.37-32.6,25.87-44.11C522.86,314.64,529.14,284.59,524.66,281.75z"/>
	</g>
	<g>
		<path class="st0" d="M157.72,423.35c0,0-37.68-2.69-45.31,10.77c-7.63,13.46-6.73,39.92,19.29,48.9
			c26.02,8.97,48.45,11.66,63.7,7.18c15.25-4.49,34.99-16.15,13.46-36.34C187.32,433.67,157.72,423.35,157.72,423.35z"/>
		<path class="st0" d="M197.19,356.51l-78.05-62.8c0,0-34.09-13.91-40.82,20.63s1.35,90.61,31.85,106.76
			c30.5,16.15,89.27,45.76,107.21,48.9s34.99-46.2,23.33-68.18C229.04,379.84,197.19,356.51,197.19,356.51z"/>
		<path class="st1" d="M148.89,435.61c0,0,22.13,9.12,42.02,10.77c19.89,1.64,44.71-3.14,44.71-3.14s-1.2,6.13-6.13,14.21
			c-4.93,8.07-10.77,9.72-19.44,6.28C201.38,460.28,148.89,435.61,148.89,435.61z"/>
		<path class="st2" d="M81.46,322.87c0,0-2.69,31.85,2.47,47.77c5.16,15.92,11.44,35.66,20.19,41.49
			c8.75,5.83,47.33,24.67,47.33,24.67s30.95,10.77,43.51,10.77s40.67-4.34,40.67-4.34s-44.93-0.37-77.46-17.87
			c-32.52-17.49-56.3-56.52-57.64-68.18C99.18,345.52,80.33,328.03,81.46,322.87z"/>
		<path class="st1" d="M147.29,445.33c0,0,30.84,14.8,33.42,15.92s28.04,11.66,29.61,11.89s2.58,0.9,2.58,0.9s-5.72,9.53-16.71,11.1
			c-10.99,1.57-15.7,3.03-24.11,2.47s-31.4-5.94-34.77-7.63c-3.36-1.68,32.86,7.18,30.73-4.15
			C165.9,464.51,139.88,447.91,147.29,445.33z"/>
	</g>
	<g>
		<path class="st3" d="M197.75,417.45c0,0-20.98,74.58-3.67,124.53c17.31,49.95,71.32,93.06,115.37,82.79
			c44.05-10.26,84.96-43.79,96.5-104.01c11.54-60.21-6.29-131.38-24.12-132.74C363.99,386.66,198.27,386.66,197.75,417.45z"/>
		<g>
			<path class="st4" d="M224.84,427.07c19.83,16.52,40.89,24.3,62.6,23.08c30.03-1.67,57.19-14.73,74.7-25.38
				c16.01-9.75,26.56-19.03,32.02-24.79c-3.63-6.27-7.58-10-11.52-10.3c-15.5-1.19-142.75-1.34-176.1,18.86
				C210.66,413.59,216.86,420.42,224.84,427.07z"/>
			<path class="st4" d="M200.02,475.93c0.21,0.33,8.98,13.73,24.24,26.45c19.83,16.52,40.89,24.3,62.6,23.08
				c30.03-1.67,57.19-14.73,74.7-25.38c23.06-14.04,34.8-27.12,36.31-30.11c2.08-4.98,6.92-7.79,11.81-7.32
				c-1.08-13.95-3.27-27.03-6.18-38.16c-8.43,7.52-18.79,15.01-28.51,21c-19.96,12.31-51.13,27.39-86.31,29.35
				c-1.82,0.1-3.65,0.15-5.47,0.15c-25.6,0-50.92-9.98-73.57-29.07c-5.51-4.64-10.28-9.33-14.25-13.62
				c-2.02,9.36-4.53,22.94-6.03,38.24C193.43,470.18,197.57,472.1,200.02,475.93z"/>
			<path class="st4" d="M204.06,537.87c0.27,0.41,9.03,13.76,24.24,26.44c19.83,16.53,40.89,24.29,62.6,23.08
				c30.03-1.67,57.19-14.73,74.7-25.38c23.07-14.04,34.8-27.12,36.31-30.11c0.88-2.11,2.27-3.82,3.94-5.07
				c0.32-1.46,0.63-2.92,0.91-4.41c1.86-9.71,2.95-19.7,3.41-29.64c-9.15,9.71-23.01,20.15-35.75,28.01
				c-19.96,12.31-51.13,27.39-86.31,29.35c-1.82,0.1-3.65,0.15-5.47,0.15c-25.6,0-50.92-9.98-73.57-29.07
				c-9.09-7.66-16.16-15.44-20.98-21.36c0.2,11.14,1.28,22.35,3.7,32.87C196.35,531.65,201.28,533.54,204.06,537.87z"/>
			<path class="st4" d="M378.44,582.73c-19.96,12.31-51.13,27.39-86.31,29.35c-1.82,0.1-3.65,0.15-5.47,0.15
				c-21.06,0-41.94-6.77-61.3-19.8c24.15,25.14,56.58,40.59,84.89,34c26.89-6.27,52.61-21.2,71.19-45.58
				C380.44,581.48,379.44,582.12,378.44,582.73z"/>
			<path class="st5" d="M209.06,521.21c22.65,19.09,47.97,29.07,73.57,29.07c1.82,0,3.65-0.05,5.47-0.15
				c35.18-1.96,66.35-17.04,86.31-29.35c12.75-7.86,26.6-18.29,35.75-28.01c0.47-10.23,0.26-20.39-0.49-30.14
				c3.11-11.46-5.33,5.51-10.73,9.72c-1.51,3-14.32,13.67-37.38,27.71c-17.5,10.66-44.67,23.71-74.7,25.38
				c-21.7,1.21-42.77-6.56-62.6-23.08c-15.26-12.72-31.88-37.66-32.1-37.99c-2.45-3.83,1.27,5.8-2.81,6.14
				c-0.92,9.33-1.45,19.3-1.28,29.33C192.9,505.77,199.97,513.55,209.06,521.21z"/>
			<path class="st5" d="M209.63,445.91c22.65,19.09,47.97,29.07,73.57,29.07c1.82,0,3.65-0.05,5.47-0.15
				c35.18-1.96,66.35-17.04,86.31-29.35c9.72-5.99,20.07-13.48,28.51-21c-2.62-10.02-5.83-18.45-9.34-24.51
				c-5.46,5.77-16.01,15.04-32.02,24.79c-17.5,10.66-44.67,23.71-74.7,25.38c-21.71,1.21-42.77-6.56-62.6-23.08
				c-7.98-6.65-14.18-13.48-18.31-18.53c-5.01,3.04-7.91,6.54-7.98,10.56c0,0-1.4,4.97-3.17,13.19
				C199.36,436.58,204.12,441.26,209.63,445.91z"/>
			<path class="st5" d="M292.13,612.07c35.18-1.96,66.35-17.04,86.31-29.35c0.99-0.61,2-1.24,3-1.89
				c11.11-14.57,19.66-32.52,24.39-54.01c-1.67,1.25-3.05,2.96-3.94,5.07c-1.51,3-13.24,16.07-36.31,30.11
				c-17.5,10.66-44.67,23.71-74.7,25.38c-21.7,1.21-42.77-6.56-62.6-23.08c-15.21-12.68-33.27-32.11-33.54-32.52
				c-2.78-4.34,1.59-0.14-2.99,0.93c0.86,3.73,1.88,7.38,3.1,10.9c6.18,17.85,12.84,29.07,26.27,43.05
				c19.36,13.03,44.45,25.55,65.51,25.55C288.48,612.23,290.31,612.18,292.13,612.07z"/>
		</g>
	</g>
	<g>
		<radialGradient id="path2_2_" cx="296.3964" cy="528.1719" r="82.9791" gradientUnits="userSpaceOnUse">
			<stop  offset="0.2458" style="stop-color:#FCEA10"/>
			<stop  offset="0.5663" style="stop-color:#FBE90F"/>
			<stop  offset="0.6818" style="stop-color:#F4E30D"/>
			<stop  offset="0.7641" style="stop-color:#E9D908"/>
			<stop  offset="0.8306" style="stop-color:#D9CB02"/>
			<stop  offset="0.8876" style="stop-color:#C5B900"/>
			<stop  offset="0.9381" style="stop-color:#ACA300"/>
			<stop  offset="0.9826" style="stop-color:#908A00"/>
			<stop  offset="1" style="stop-color:#837F00"/>
		</radialGradient>
		<path id="path2" class="st6" d="M376.89,548.25c-11.08,44.46-56.11,71.51-100.57,60.42c-44.44-11.08-71.5-56.11-60.41-100.57
			c11.08-44.46,56.1-71.52,100.55-60.44C360.92,458.75,387.97,503.79,376.89,548.25z"/>
		<radialGradient id="path2_3_" cx="296.3964" cy="528.1719" r="77.1764" gradientUnits="userSpaceOnUse">
			<stop  offset="0" style="stop-color:#FCEA10"/>
			<stop  offset="1" style="stop-color:#CFC400"/>
		</radialGradient>
		<path id="path2_1_" class="st7" d="M371.26,546.84c-10.31,41.35-52.19,66.51-93.54,56.2c-41.33-10.31-66.5-52.19-56.18-93.53
			c10.3-41.35,52.18-66.52,93.52-56.21C356.41,463.61,381.57,505.49,371.26,546.84z"/>
		<path id="path4" class="st8" d="M332.98,516.35c1.65-11.04-6.76-16.98-18.25-20.94l3.73-14.96l-9.1-2.27l-3.63,14.56
			c-2.39-0.6-4.85-1.16-7.29-1.72l3.66-14.66l-9.1-2.27l-3.73,14.95c-1.98-0.45-3.93-0.9-5.81-1.37l0.01-0.05l-12.56-3.14
			l-2.42,9.72c0,0,6.76,1.55,6.61,1.64c3.69,0.92,4.35,3.36,4.24,5.3l-4.25,17.04c0.25,0.06,0.58,0.16,0.95,0.3
			c-0.3-0.08-0.63-0.16-0.96-0.24l-5.95,23.87c-0.45,1.12-1.59,2.8-4.17,2.16c0.09,0.13-6.62-1.65-6.62-1.65l-4.52,10.42l11.85,2.95
			c2.2,0.55,4.36,1.13,6.49,1.68l-3.77,15.13l9.09,2.27l3.73-14.97c2.48,0.67,4.9,1.3,7.26,1.88l-3.72,14.9l9.1,2.27l3.77-15.1
			c15.53,2.94,27.2,1.75,32.11-12.29c3.96-11.31-0.2-17.83-8.37-22.08C327.31,528.35,331.79,524.43,332.98,516.35L332.98,516.35z
			 M312.18,545.52c-2.81,11.31-21.85,5.19-28.02,3.66l5-20.04C295.33,530.68,315.12,533.73,312.18,545.52z M315,516.19
			c-2.57,10.28-18.41,5.06-23.55,3.78l4.53-18.18C301.12,503.07,317.67,505.46,315,516.19z"/>
	</g>
	<path class="st9" d="M296.85,431.57c28.71,0,111.85,8.97,111.85-97.49S311.5,221.94,295.06,221.94h-4.56
		c-16.45,0-113.64,5.68-113.64,112.15s83.14,97.49,111.85,97.49H296.85z"/>
	<g>
		<path class="st10" d="M320.55,264.33c0,0-0.67-43.29,28.48-94.43c26.77-46.96,48.22-45.31,48.22-45.31s4.93-0.45,7.18,4.26
			c2.24,4.71,2.92,8.75-4.26,13.68s-35.09,14.85-60.78,90.39c-4.63,13.61-4.21,26.96-6.95,32.75
			C328.53,273.9,320.42,272.1,320.55,264.33z"/>
		<path class="st11" d="M329.63,229.23c0,0,14.17-35.1,17.76-44.3s21.53-37.01,35.44-44.86c13.91-7.85,21.63-7.55,19.14-10.12
			c-2.52-2.61-0.84-5.24-14.07,0.03c-9.8,3.9-32.18,27.36-38.19,41.38c-21.98,51.36-21.79,59.58-23.1,65.49
			C324.81,244.93,327.62,233.94,329.63,229.23z"/>
	</g>
	<g>
		<path class="st12" d="M267.25,264.03c0,0-6.96-40.61-43.19-83.33c-33.27-39.23-53.04-33.93-53.04-33.93s-4.69,0.45-5.97,5.24
			c-1.27,4.8-1.19,8.69,6.38,12.05s35.42,7.74,72.69,73.89c6.71,11.92,8.66,24.48,12.24,29.41
			C261.46,274.38,268.73,271.28,267.25,264.03z"/>
		<path class="st11" d="M252.6,232.79c0,0-19.4-30.35-24.37-38.32s-26.63-30.84-41.01-35.75s-21.55-3.27-19.68-6.11
			c1.9-2.88-0.13-5.05,13.17-2.44c9.85,1.93,34.9,19.95,42.97,32.01c29.56,44.19,30.82,51.91,33.09,57.21
			C259.86,246.63,255.31,236.84,252.6,232.79z"/>
	</g>
	<ellipse class="st13" cx="358.62" cy="374.12" rx="22.66" ry="17.16"/>
	<g>
		<ellipse class="st13" cx="220.47" cy="370.95" rx="24.18" ry="18.31"/>
		<g>
			<ellipse class="st14" cx="244.73" cy="342.29" rx="21.4" ry="35.69"/>
			<path class="st8" d="M233.5,334.93l-1.25-1c-3.06-2.46-3.56-6.98-1.09-10.05l7.79-9.69c2.46-3.06,6.98-3.56,10.05-1.09l1.25,1
				c3.06,2.46,3.56,6.98,1.09,10.05l-7.79,9.69C241.08,336.9,236.56,337.39,233.5,334.93z"/>
			<path class="st8" d="M243.83,370.24l-0.83-0.67c-2.04-1.64-2.36-4.64-0.73-6.68l5.18-6.44c1.64-2.04,4.64-2.36,6.68-0.73
				l0.83,0.67c2.04,1.64,2.36,4.64,0.73,6.68l-5.18,6.44C248.87,371.55,245.86,371.87,243.83,370.24z"/>
		</g>
	</g>
	<g>
		<path class="st5" d="M270.58,377.1c0,0-3.9,41.37,23.08,44.52c26.98,3.15,26.23-35.82,23.98-45.12c-2.25-9.29-3.9,10.64-24.43,6.3
			C272.68,378.45,271.48,372.76,270.58,377.1z"/>
		<path class="st15" d="M297.86,387.6c0,0-7.64,8.54-8.54,12.59c-0.9,4.05-3.15,12.89-1.35,14.54c1.8,1.65,10.27,6.14,13.79,4.05
			c5.2-3.1,9.94-6.46,11.69-13.29c3.1-12.09,2.5-25.98,2.5-25.98S305.51,387.6,297.86,387.6z"/>
		<path class="st16" d="M297.86,387.6c0,0,7.59-0.4,9.89,4.4c1.79,3.74,1.8,6.1,1.1,11.59c-0.31,2.42-10.61,17.29-7.09,15.19
			c5.2-3.1,9.94-6.46,11.69-13.29c3.1-12.09,2.5-25.98,2.5-25.98S305.51,387.6,297.86,387.6z"/>
	</g>
	<path class="st14" d="M321.69,362.85c0,0,6.37-22.2,25.33-23.1c18.97-0.9,30.86,15.36,30.86,15.36s-0.65-37.57-37.93-33.4
		C301.17,326.05,318.49,360.08,321.69,362.85z"/>
	<path class="st17" d="M391.82,465.04c-0.23,4.72-3.81,12.32-14.55,25.12c-22.06,26.27-40.16,13.33-31.63,1.82
		c1.5-2.02,3.58-3.53,5.9-4.49c4.54-1.89,14.86-6.61,18.55-11.76c3.59-5.01,7.09-14.9,10.65-18.45"/>
	<path class="st17" d="M208.01,464.59c0.23,4.72,3.81,12.32,14.55,25.12c22.06,26.27,40.16,13.33,31.63,1.82
		c-1.5-2.02-3.58-3.53-5.9-4.49c-4.54-1.89-14.86-6.61-18.55-11.76c-3.59-5.01-7.09-14.9-10.65-18.45"/>
	<path class="st18" d="M396.53,528.3c-1.6,3.7-6.75,8.71-19.18,15.71c-25.52,14.38-36.11-1.41-25.84-8.05
		c1.8-1.17,3.92-1.75,6.06-1.82c4.2-0.15,13.87-0.82,18.36-3.83c4.37-2.93,10.15-9.78,14.05-11.55"/>
	<path class="st17" d="M338.05,607.72c4.31,1.94,5.08,5.36,13.06,20.05c16.37,30.15-2.31,42.25-9.9,30.1
		c-1.33-2.13-1.97-4.62-2.02-7.13c-0.1-4.91-0.71-16.25-4.15-21.57c-3.35-5.17-11.27-12.06-13.27-16.66"/>
	<path class="st17" d="M267.62,613.55c-4.4,1.73-7.74,6.56-16.43,20.84c-17.84,29.3,0.22,42.32,8.4,30.55
		c1.43-2.06,2.2-4.52,2.37-7.02c0.34-4.9,1.51-16.2,5.21-21.34c3.6-5,14.37-15.84,16.6-20.34"/>
	<path class="st19" d="M202.12,531.46c1.77,3.85,4.06,9.54,16.42,17.41c25.37,16.15,34.53,0.83,24.27-6.54
		c-1.8-1.29-3.87-2.01-5.93-2.22c-4.03-0.41-13.34-1.7-17.84-5.03c-4.37-3.24-10.34-10.54-14.19-12.58"/>
</g>
</svg>
